<?xml version="1.0" encoding="UTF-8"?>
<svg width="96" height="96" viewBox="0 0 96 96" xmlns="http://www.w3.org/2000/svg">
  <defs>
    <linearGradient id="fishGrad" x1="0" y1="0" x2="0" y2="1">
      <stop offset="0%" stop-color="#828894"/>
      <stop offset="100%" stop-color="#606672"/>
    </linearGradient>
  </defs>
  <g transform="rotate(-18 48 44)" fill="url(#fishGrad)">
    <path d="M8 46 L16 50 L8 54 L18.688000000000002 51.138000000000005 L21.904000000000003 52.14400000000002 L25.575999999999993 53.00599999999998 L29.631999999999994 53.712 L34 54.25 L38.608000000000004 54.608000000000004 L43.38399999999999 54.77399999999999 L48.256 54.736000000000004 L53.152 54.482000000000006 L58 54 L58 54 L62.3125 53.25 L66.25 52.5 L69.8125 51.75 L73 51 L75.8125 50.25 L78.25 49.5 L80.3125 48.75 L82 48 L82 48 L83.66666666666667 47.842592592592595 L84.66666666666667 47.40740740740741 L85 46.75 L84.66666666666666 45.925925925925924 L83.66666666666667 44.99074074074075 L82 44 L80.564 42.20400000000001 L78.67200000000003 40.432000000000016 L76.34799999999998 38.708 L73.616 37.056 L70.5 35.5 L67.024 34.064 L63.21199999999999 32.772 L59.087999999999994 31.648 L54.676 30.716 L50 30 L50 30 L44.19140625 29.5234375 L38.78125 29.5625 L33.79296875 30.0703125 L29.25 31 L25.17578125 32.3046875 L21.59375 33.9375 L18.52734375 35.8515625 L16 38 L8 46 Z"/>
    <polygon points="40,30 44,18 50,30"/>
    <polygon points="54,52 50,60 60,54"/>
  </g>
  <g transform="rotate(-18 48 44)">
    <circle cx="74" cy="42" r="5" fill="#fff"/>
    <circle cx="74" cy="42" r="5.5" fill="none" stroke="#606672" stroke-width="1.2"/>
  </g>
</svg>
